<?xml version="1.0" standalone="no"?>
<!DOCTYPE svg PUBLIC "-//W3C//DTD SVG 20010904//EN"
 "http://www.w3.org/TR/2001/REC-SVG-20010904/DTD/svg10.dtd">
<svg version="1.0" xmlns="http://www.w3.org/2000/svg"
 width="512.000000pt" height="512.000000pt" viewBox="0 0 512.000000 512.000000"
 preserveAspectRatio="xMidYMid meet">

<g transform="translate(0.000000,512.000000) scale(0.100000,-0.100000)"
fill="#000000" stroke="none">
<path d="M2852 5103 c-23 -20 -1977 -2821 -1994 -2859 -8 -17 -7 -31 2 -54 26
-62 2 -60 754 -60 l684 0 -4 -37 c-8 -69 -154 -1921 -157 -1984 -2 -55 0 -63
26 -85 33 -28 77 -31 105 -6 23 19 1977 2821 1994 2858 8 17 7 32 -2 54 -26
62 2 60 -798 60 -752 0 -781 -1 -802 -40 -17 -32 -12 -88 10 -110 20 -20 33
-20 681 -20 571 0 660 -2 656 -14 -8 -20 -1671 -2405 -1675 -2402 -1 2 29 397
68 879 38 481 70 898 70 925 0 38 -5 53 -23 70 l-23 22 -658 0 c-569 0 -657 2
-653 14 8 19 1671 2405 1674 2402 2 -2 -24 -337 -57 -745 -41 -516 -56 -750
-50 -767 21 -54 117 -63 148 -13 8 13 37 318 83 892 38 480 71 898 72 930 2
53 -1 61 -26 83 -33 28 -77 31 -105 7z"/>
</g>
</svg>
