<?xml version="1.0" standalone="no"?>
<!DOCTYPE svg PUBLIC "-//W3C//DTD SVG 20010904//EN"
 "http://www.w3.org/TR/2001/REC-SVG-20010904/DTD/svg10.dtd">
<svg version="1.0" xmlns="http://www.w3.org/2000/svg"
 width="512.000000pt" height="512.000000pt" viewBox="0 0 512.000000 512.000000"
 preserveAspectRatio="xMidYMid meet">

<g transform="translate(0.000000,512.000000) scale(0.100000,-0.100000)"
fill="#000000" stroke="none">
<path d="M3506 5109 c-316 -36 -620 -185 -855 -419 -199 -198 -343 -461 -406
-745 -26 -114 -31 -372 -11 -495 l18 -103 -1035 -1036 c-1094 -1097 -1094
-1096 -1156 -1252 -42 -105 -55 -191 -48 -328 5 -124 24 -195 78 -305 70 -141
199 -270 342 -340 131 -64 198 -80 347 -80 148 -1 237 20 365 87 77 40 116 77
1141 1100 l1061 1058 89 -17 c131 -26 347 -23 492 5 388 75 731 300 948 623
113 167 196 378 229 576 14 82 16 140 12 275 -7 231 -32 338 -134 580 l-46
109 -431 -430 c-395 -394 -436 -431 -486 -450 -85 -31 -157 -37 -228 -18 -124
31 -203 96 -256 206 -28 59 -31 74 -31 160 0 163 -11 147 478 637 231 232 419
424 416 426 -7 5 -60 28 -173 73 -239 97 -480 131 -720 103z m379 -246 c50 -9
92 -18 94 -20 3 -2 -133 -142 -300 -311 -174 -175 -317 -327 -332 -353 -205
-359 -11 -811 390 -905 89 -21 244 -14 326 15 127 44 151 64 474 384 l311 309
19 -78 c14 -62 18 -117 17 -249 -1 -186 -16 -267 -83 -441 -98 -252 -309 -487
-563 -623 -268 -145 -552 -181 -864 -109 l-95 22 -1087 -1086 c-1054 -1053
-1089 -1087 -1162 -1122 -76 -37 -186 -66 -250 -66 -106 0 -249 53 -335 122
-219 180 -268 478 -118 718 23 36 407 427 1108 1130 l1073 1075 -25 105 c-22
91 -26 129 -27 280 -1 115 4 194 12 230 64 263 167 454 337 626 149 150 311
250 505 312 191 60 370 71 575 35z"/>
</g>
</svg>
